<svg width="1446" height="451" viewBox="0 0 1446 451" fill="none" xmlns="http://www.w3.org/2000/svg">
<path d="M876.905 207.385L677.292 207.385V241.437H760.628L944.368 450.501L750.958 450.501L677.292 368.263V450.496H536.936L536.936 207.385H536.844V-0.586914L876.905 -0.586914V207.385ZM1446 138.537H1446V450.496H1305.48V138.537H1272.53V346.503L1129.94 346.503V138.537H1097.51V450.496H956.989L956.989 -1.98438L1446 -1.98438V138.537ZM309.146 346.491L140.521 346.491L140.521 450.479H0L0 241.101L309.146 241.101V346.491ZM491.833 450.479H351.312L351.312 -1.99902L491.833 -1.99902L491.833 450.479ZM309.146 138.522L140.521 138.522V207.38L0 207.38L0 -1.99902L309.146 -1.99902V138.522Z" fill="#1447E6"/>
</svg>
