<svg width="423" height="423" viewBox="0 0 423 423" fill="none" xmlns="http://www.w3.org/2000/svg">
<path d="M0 211.5C0 94.6918 94.6918 0 211.5 0C328.308 0 423 94.6918 423 211.5C423 328.308 328.308 423 211.5 423C94.6918 423 0 328.308 0 211.5Z" fill="#1447E6"/>
<path d="M304 280.409H203.55V342.439H120V217.682H304V280.409Z" fill="#EDEFF5"/>
<path d="M303.801 165H203.668V199.932H120V165H119.801V81H303.801V165ZM247.726 112.53L154.568 122.875L247.726 133.219L258.069 164.749L268.414 133.219L303.783 122.875L268.414 112.53L258.069 81L247.726 112.53Z" fill="#EDEFF5"/>
</svg>
