<svg width="136" height="45" viewBox="0 0 136 45" fill="none" xmlns="http://www.w3.org/2000/svg">
<path d="M13.9842 40.3611C23.5101 39.6683 23.0423 4.63891 18.7472 4.63892C-1.51704 4.63892 -0.161518 14.3813 0.128349 15.4638C0.418219 16.5463 15.2832 16.5463 15.6813 11.8916C16.0794 7.2369 16.1492 18.0618 16.1492 18.0618C12.6504 17.3041 2.42323 14.4246 1.21084 18.9278C-0.00154877 23.4309 10.0873 22.8247 15.2832 21.9588C12.0357 26.0722 7.22948 35.5115 13.9842 40.3611Z" fill="#CA3139"/>
<path d="M30.2082 40.3611C20.6823 39.6683 21.1501 4.63891 25.4452 4.63892C45.7094 4.63892 44.3539 14.3813 44.064 15.4638C43.7742 16.5463 28.9092 16.5463 28.5111 11.8916C28.1129 7.2369 28.0432 18.0618 28.0432 18.0618C31.542 17.3041 41.7692 14.4246 42.9815 18.9278C44.1939 23.4309 34.1051 22.8247 28.9092 21.9588C32.1566 26.0722 36.9629 35.5115 30.2082 40.3611Z" fill="#CA3139"/>
<path d="M60.6094 36C59.564 36 58.732 35.712 58.1134 35.136C57.516 34.56 57.2174 33.7173 57.2174 32.608V28.096C57.2174 25.8347 57.5587 24.1173 58.2414 22.944C58.924 21.7707 59.788 20.928 60.8334 20.416L60.6734 19.808H60.1294C59.148 19.808 58.3694 19.4987 57.7934 18.88C57.2387 18.24 56.9507 17.376 56.9294 16.288C56.908 15.2213 57.1854 14.368 57.7614 13.728C58.3587 13.088 59.148 12.768 60.1294 12.768H71.3294C73.612 12.768 74.7534 13.8347 74.7534 15.968C74.7534 16.928 74.476 17.696 73.9214 18.272C73.3667 18.848 72.5027 19.136 71.3294 19.136H65.0894C64.3 19.136 63.9054 19.5947 63.9054 20.512V22.816C64.908 22.5387 65.9534 22.2187 67.0414 21.856C68.1294 21.4933 69.1747 21.312 70.1774 21.312C71.244 21.312 72.0654 21.5787 72.6414 22.112C73.2387 22.624 73.5374 23.4133 73.5374 24.48C73.5374 25.5253 73.2387 26.3147 72.6414 26.848C72.0654 27.36 71.244 27.6267 70.1774 27.648C69.1747 27.6693 68.1187 27.5093 67.0094 27.168C65.9214 26.8053 64.876 26.4853 63.8734 26.208L63.8414 32.608C63.8414 33.7173 63.5427 34.56 62.9454 35.136C62.3694 35.712 61.5907 36 60.6094 36ZM80.7941 36.064C79.8128 36.064 79.0128 35.7653 78.3941 35.168C77.7754 34.5707 77.4661 33.8133 77.4661 32.896V15.968C77.4661 15.0293 77.7648 14.24 78.3621 13.6C78.9808 12.96 79.7914 12.64 80.7941 12.64C81.8608 12.64 82.6928 12.96 83.2901 13.6C83.9088 14.2187 84.2181 14.9867 84.2181 15.904V32.896C84.2181 33.8133 83.8874 34.5707 83.2261 35.168C82.5861 35.7653 81.7754 36.064 80.7941 36.064ZM103.143 36C102.076 36 101.233 35.68 100.615 35.04C99.9959 34.3787 99.6653 33.5253 99.6226 32.48C99.5373 30.6667 99.0786 29.3867 98.2466 28.64C97.4359 27.872 96.3479 27.488 94.9826 27.488H94.3426V32.608C94.3426 33.7173 94.0439 34.56 93.4466 35.136C92.8493 35.712 92.0599 36 91.0786 36C90.0333 36 89.2119 35.712 88.6146 35.136C88.0173 34.56 87.7186 33.7173 87.7186 32.608V28.096C87.7186 25.8347 88.0493 24.1173 88.7106 22.944C89.3933 21.7707 90.2573 20.928 91.3026 20.416L91.1426 19.808H90.6306C89.6493 19.808 88.8706 19.4987 88.2946 18.88C87.7399 18.24 87.4413 17.376 87.3986 16.288C87.3773 15.2213 87.6653 14.3573 88.2626 13.696C88.8599 13.0347 89.6493 12.704 90.6306 12.704H98.7906C101.073 12.704 102.919 13.2587 104.327 14.368C105.735 15.4773 106.439 17.248 106.439 19.68C106.439 20.9387 106.225 21.9947 105.799 22.848C105.372 23.68 104.828 24.32 104.167 24.768C103.505 25.216 102.812 25.4827 102.087 25.568V25.984C103.409 26.304 104.497 27.008 105.351 28.096C106.225 29.184 106.663 30.6453 106.663 32.48C106.663 33.6533 106.343 34.5387 105.703 35.136C105.084 35.712 104.231 36 103.143 36ZM94.1826 22.592C94.1826 23.0613 94.2679 23.3707 94.4386 23.52C94.6093 23.6693 94.9293 23.744 95.3986 23.744H98.4066C99.3026 23.744 99.9533 23.5413 100.359 23.136C100.764 22.7307 100.967 22.1653 100.967 21.44C100.967 20.6933 100.764 20.1173 100.359 19.712C99.9533 19.3067 99.3026 19.104 98.4066 19.104H95.3986C94.9293 19.104 94.6093 19.168 94.4386 19.296C94.2679 19.424 94.1826 19.7333 94.1826 20.224V22.592ZM112.665 36C111.556 36 110.734 35.6693 110.201 35.008C109.668 34.3467 109.401 33.4613 109.401 32.352V17.44C109.401 15.8187 109.838 14.624 110.713 13.856C111.609 13.088 112.676 12.704 113.913 12.704C115.086 12.704 116.078 13.088 116.889 13.856C117.721 14.624 118.329 15.84 118.713 17.504L121.209 28.352H122.041L124.537 17.504C124.921 15.84 125.529 14.624 126.361 13.856C127.214 13.088 128.228 12.704 129.401 12.704C130.638 12.704 131.694 13.088 132.569 13.856C133.465 14.624 133.913 15.8187 133.913 17.44V32.352C133.913 33.4613 133.636 34.3467 133.081 35.008C132.548 35.6693 131.726 36 130.617 36C129.55 36 128.729 35.6693 128.153 35.008C127.577 34.3467 127.289 33.4613 127.289 32.352V23.744C127.289 23.5307 127.257 23.3387 127.193 23.168C127.15 22.976 127.012 22.88 126.777 22.88C126.585 22.88 126.446 22.976 126.361 23.168C126.276 23.3387 126.212 23.5307 126.169 23.744L124.953 31.808C124.804 32.6827 124.622 33.44 124.409 34.08C124.217 34.6987 123.908 35.1787 123.481 35.52C123.054 35.84 122.436 36 121.625 36C120.836 36 120.217 35.84 119.769 35.52C119.342 35.1787 119.022 34.6987 118.809 34.08C118.617 33.44 118.457 32.6827 118.329 31.808L117.081 23.744C117.06 23.5307 117.006 23.3387 116.921 23.168C116.836 22.976 116.686 22.88 116.473 22.88C116.26 22.88 116.121 22.976 116.057 23.168C115.993 23.3387 115.961 23.5307 115.961 23.744V32.352C115.961 33.4613 115.673 34.3467 115.097 35.008C114.542 35.6693 113.732 36 112.665 36Z" fill="#0C150F"/>
</svg>
