<svg width="45" height="36" viewBox="0 0 45 36" fill="none" xmlns="http://www.w3.org/2000/svg">
<path d="M13.9852 35.7222C23.5111 35.0294 23.0432 -3.05267e-06 18.7481 0C-1.51606 0 -0.160542 9.74241 0.129326 10.8249C0.419195 11.9074 15.2842 11.9074 15.6823 7.25269C16.0804 2.59798 16.1502 13.4229 16.1502 13.4229C12.6513 12.6651 2.42421 9.78571 1.21182 14.2889C-0.000572205 18.792 10.0882 18.1858 15.2842 17.3198C12.0367 21.4333 7.23045 30.8726 13.9852 35.7222Z" fill="#CA3139"/>
<path d="M30.2101 35.7222C20.6842 35.0294 21.1521 -3.05267e-06 25.4472 0C45.7114 0 44.3559 9.74241 44.066 10.8249C43.7761 11.9074 28.9111 11.9074 28.513 7.25269C28.1149 2.59798 28.0451 13.4229 28.0451 13.4229C31.544 12.6651 41.7711 9.78571 42.9835 14.2889C44.1959 18.792 34.1071 18.1858 28.9111 17.3198C32.1586 21.4333 36.9649 30.8726 30.2101 35.7222Z" fill="#CA3139"/>
</svg>
