<svg width="410" height="410" viewBox="0 0 410 410" fill="none" xmlns="http://www.w3.org/2000/svg">
<rect width="409.093" height="409.093" rx="204.546" fill="#F2B341"/>
<path d="M183.867 94.1448C210.447 94.1448 213.342 310.917 154.393 315.204C112.592 285.194 142.335 226.78 162.432 201.324C130.278 206.683 67.8454 210.435 75.3477 182.569C82.8503 154.702 146.139 172.52 167.791 177.209C167.79 177.104 167.357 110.244 164.896 139.027C162.431 167.831 70.4422 167.831 68.6484 161.132C66.8545 154.432 58.4686 94.1449 183.867 94.1448ZM225.315 94.1448C350.714 94.1449 342.328 154.432 340.534 161.132C338.74 167.831 246.751 167.831 244.287 139.027C241.825 110.244 241.392 177.104 241.392 177.209C263.043 172.52 326.332 154.702 333.835 182.569C341.337 210.435 278.905 206.683 246.751 201.324C266.847 226.78 296.589 285.194 254.789 315.204C195.84 310.916 198.736 94.1448 225.315 94.1448Z" fill="#26383B"/>
</svg>
